<svg width="140" height="93" viewBox="0 0 140 93" fill="none" xmlns="http://www.w3.org/2000/svg">
<path d="M125.217 64L114 38H118.239L127.078 59.018L135.917 38H140L128.835 64H125.217Z" fill="white"/>
<path d="M100.326 64C97.8471 64 95.5916 63.4093 93.5599 62.2278C91.5627 61.0116 89.9614 59.3784 88.7562 57.3282C87.5854 55.278 87 52.9846 87 50.4479C87 47.9459 87.5682 45.6873 88.7045 43.6718C89.8409 41.6216 91.3733 40.0058 93.3017 38.8243C95.23 37.6081 97.3822 37 99.7583 37C102.065 37 104.132 37.6081 105.957 38.8243C107.816 40.0058 109.28 41.6216 110.347 43.6718C111.449 45.6873 112 47.9459 112 50.4479V51.6467H90.7707C90.9773 53.3494 91.511 54.8784 92.3719 56.2336C93.2672 57.5888 94.4208 58.666 95.8326 59.4653C97.2445 60.2297 98.7941 60.612 100.481 60.612C101.824 60.612 103.133 60.4035 104.407 59.9865C105.681 59.5695 106.749 58.9788 107.61 58.2143L109.986 60.7683C108.539 61.8456 107.024 62.6622 105.44 63.2181C103.89 63.7394 102.186 64 100.326 64ZM90.874 48.5714H108.178C107.971 47.0077 107.455 45.6178 106.628 44.4015C105.836 43.1506 104.837 42.1776 103.632 41.4826C102.427 40.7529 101.101 40.388 99.655 40.388C98.1742 40.388 96.814 40.7355 95.5744 41.4305C94.3347 42.1255 93.3017 43.0985 92.4752 44.3494C91.6488 45.5656 91.115 46.973 90.874 48.5714Z" fill="white"/>
<path d="M54.985 60.3H63.1619C65.2666 60.3 67.2159 59.93 69.01 59.19C70.8041 58.45 72.374 57.4105 73.7195 56.0714C75.0651 54.7324 76.1002 53.1643 76.8247 51.3671C77.5837 49.57 77.9633 47.6143 77.9633 45.5C77.9633 43.3857 77.5837 41.43 76.8247 39.6329C76.1002 37.8357 75.0651 36.2676 73.7195 34.9286C72.374 33.5895 70.8041 32.55 69.01 31.81C67.2159 31.07 65.2666 30.7 63.1619 30.7H54.985V60.3ZM51 64V27H62.9549C65.7151 27 68.251 27.4581 70.5626 28.3743C72.8742 29.2905 74.8753 30.5767 76.5659 32.2329C78.291 33.889 79.6194 35.8448 80.5509 38.1C81.517 40.3552 82 42.8219 82 45.5C82 48.1781 81.5342 50.6448 80.6027 52.9C79.6711 55.1552 78.3428 57.111 76.6177 58.7671C74.9271 60.4233 72.9087 61.7095 70.5626 62.6257C68.251 63.5419 65.7151 64 62.9549 64H51Z" fill="white"/>
<path d="M47.0968 92.4082C40.6115 92.4082 34.5528 91.2562 28.9208 88.9522C23.2888 86.5629 18.3395 83.2775 14.0728 79.0962C9.80615 74.8295 6.47815 69.9229 4.08881 64.3762C1.78481 58.7442 0.632812 52.6855 0.632812 46.2002C0.632812 39.7149 1.78481 33.6989 4.08881 28.1522C6.47815 22.5202 9.80615 17.6135 14.0728 13.4322C18.3395 9.16552 23.2888 5.88019 28.9208 3.57619C34.5528 1.18685 40.6115 -0.0078125 47.0968 -0.0078125C51.7901 -0.0078125 56.2701 0.589521 60.5368 1.78419C64.8888 2.89352 68.8995 4.55752 72.5688 6.77618C76.3235 8.90952 79.6515 11.5549 82.5528 14.7122L76.0248 21.6242C72.5261 17.6135 68.2168 14.5415 63.0968 12.4082C57.9768 10.1895 52.6435 9.08018 47.0968 9.08018C41.8915 9.08018 37.0701 10.0189 32.6328 11.8962C28.1955 13.7735 24.3128 16.4189 20.9848 19.8322C17.7421 23.1602 15.1821 27.0855 13.3048 31.6082C11.5128 36.0455 10.6168 40.9095 10.6168 46.2002C10.6168 51.4055 11.5128 56.2695 13.3048 60.7922C15.1821 65.3149 17.7848 69.2829 21.1128 72.6962C24.4408 76.0242 28.3235 78.6269 32.7608 80.5042C37.2835 82.3815 42.1475 83.3202 47.3528 83.3202C52.8995 83.3202 58.1902 82.2535 63.2248 80.1202C68.2595 77.9015 72.4835 74.8722 75.8968 71.0322L82.2968 77.6882C79.3101 80.7602 75.9395 83.4055 72.1848 85.6242C68.5155 87.8429 64.5475 89.5495 60.2808 90.7442C56.0141 91.8535 51.6195 92.4082 47.0968 92.4082Z" fill="white"/>
</svg>
