<svg width="435" height="433" viewBox="0 0 435 433" fill="none" xmlns="http://www.w3.org/2000/svg">
<path d="M217.27 380.995C310.333 380.995 385.776 376.519 385.776 370.999C385.776 365.478 310.333 361.002 217.27 361.002C124.207 361.002 48.7641 365.478 48.7641 370.999C48.7641 376.519 124.207 380.995 217.27 380.995Z" fill="#F5F5F5"/>
<path d="M303.526 147.751L294.905 144.219C294.905 144.219 283.529 165.297 280.27 166.366C275.837 167.814 266.66 171.841 261.22 172.547C260.481 173.43 259.273 176.177 259.386 177.175C266.695 179.656 282.755 176.362 286.197 173.766C294.027 167.876 303.526 147.751 303.526 147.751Z" fill="#E58A7B"/>
<path d="M306.177 142.956C307.785 148.987 299.077 161.12 299.077 161.12L287.666 154.621C287.666 154.621 289.804 149.632 292.411 144.554C296.591 136.35 304.343 136.077 306.177 142.956Z" fill="#4CAF4F"/>
<path opacity="0.2" d="M306.177 142.956C307.785 148.987 299.077 161.12 299.077 161.12L287.666 154.621C287.666 154.621 289.804 149.632 292.411 144.554C296.591 136.35 304.343 136.077 306.177 142.956Z" fill="black"/>
<path opacity="0.2" d="M292.194 157.217L296.687 159.778L297.478 145.764C294.862 147.804 293.019 153.95 292.194 157.217Z" fill="black"/>
<path d="M298.668 138.417C298.668 138.417 289.786 158.498 294.966 195.887H329.964C330.52 190.429 328.678 163.796 335.343 138.081C331.504 137.319 327.62 136.814 323.715 136.571C318.763 136.28 313.798 136.28 308.845 136.571C305.412 136.925 302.01 137.542 298.668 138.417Z" fill="#4CAF4F"/>
<path opacity="0.2" d="M298.668 138.417C298.668 138.417 289.786 158.498 294.966 195.887H329.964C330.52 190.429 328.678 163.796 335.343 138.081C331.504 137.319 327.62 136.814 323.715 136.571C318.763 136.28 313.798 136.28 308.845 136.571C305.412 136.925 302.01 137.542 298.668 138.417Z" fill="black"/>
<g style="mix-blend-mode:multiply">
<path d="M290.551 371.793C290.499 372.747 303.77 373.515 320.187 373.515C336.604 373.515 349.97 372.747 350.022 371.793C350.074 370.84 336.812 370.08 320.387 370.08C303.961 370.08 290.612 370.849 290.551 371.793Z" fill="#E8ECF1"/>
</g>
<path d="M313.912 346.734L307.705 349.176L313.052 363.211L319.259 360.77L313.912 346.734Z" fill="#E58A7B"/>
<path d="M341.592 365.003H335.048L332.649 349.611H339.193L341.592 365.003Z" fill="#E58A7B"/>
<path d="M334.596 364.234H341.948C342.076 364.235 342.199 364.281 342.296 364.365C342.393 364.449 342.458 364.566 342.479 364.694L343.426 370.601C343.446 370.75 343.434 370.9 343.392 371.044C343.349 371.187 343.277 371.319 343.179 371.431C343.082 371.544 342.962 371.633 342.828 371.694C342.693 371.755 342.548 371.786 342.4 371.785C339.837 371.74 338.602 371.581 335.369 371.581C333.379 371.581 329.286 371.793 326.522 371.793C323.759 371.793 323.576 369.038 324.715 368.782C329.825 367.661 331.806 366.133 333.51 364.649C333.81 364.381 334.196 364.234 334.596 364.234Z" fill="#263238"/>
<path d="M312.869 361.956L319.822 359.89C319.946 359.854 320.078 359.863 320.197 359.914C320.315 359.966 320.413 360.057 320.473 360.172L323.081 365.471C323.141 365.605 323.172 365.751 323.171 365.899C323.171 366.047 323.138 366.193 323.076 366.327C323.014 366.46 322.924 366.579 322.812 366.673C322.7 366.768 322.569 366.837 322.429 366.875C319.9 367.581 318.205 368.014 315.042 368.95C312.86 369.595 310.635 370.645 308.48 371.343C306.985 371.829 303.474 371.846 301.658 371.846C298.972 371.846 298.373 368.968 299.529 368.835C302.44 368.508 302.831 368.659 304.439 367.837C307.07 366.669 309.454 364.996 311.461 362.91C311.84 362.471 312.325 362.142 312.869 361.956Z" fill="#263238"/>
<path d="M262.315 172.512L255.119 169.448L252.155 177.554C255.104 178.011 258.105 178.011 261.054 177.554L262.315 172.512Z" fill="#E58A7B"/>
<path d="M249.765 169.236L249.574 174.622L252.155 177.537L255.119 169.43L249.765 169.236Z" fill="#E58A7B"/>
<path d="M314.764 347.926L308.537 350.369L311.295 357.627L317.522 355.184L314.764 347.926Z" fill="#CF6F64"/>
<path d="M339.193 349.611H332.649L333.892 357.55H340.436L339.193 349.611Z" fill="#CF6F64"/>
<path opacity="0.2" d="M293.854 185.776C293.984 187.374 294.132 189.008 294.323 190.685L320.343 182.102C324.407 180.878 327.938 178.284 330.355 174.746C330.459 172.388 330.59 169.907 330.789 167.32C330.876 166.066 330.981 164.776 331.094 163.469C331.207 162.162 331.363 160.714 331.528 159.319L293.854 185.776Z" fill="black"/>
<path d="M302.353 156.811L301.484 156.705C301.997 152.29 305.238 148.81 308.654 148.899V149.782C305.664 149.72 302.814 152.855 302.353 156.811Z" fill="white"/>
<path d="M306.985 164.962H306.838V164.079C309.827 164.193 312.634 161.023 313.095 157.076L313.964 157.182C313.503 161.5 310.366 164.962 306.985 164.962Z" fill="white"/>
<path d="M323.228 119.555C322.003 124.42 320.56 133.33 323.715 136.571C323.715 136.571 321.508 141.508 312.617 141.508C304.491 141.508 308.845 136.571 308.845 136.571C314.251 135.282 314.346 131.273 313.634 127.476L323.228 119.555Z" fill="#E58A7B"/>
<path d="M319.318 122.786L313.642 127.476C313.818 128.348 313.92 129.234 313.947 130.125C315.607 131.803 318.935 127.555 319.274 125.383C319.446 124.527 319.461 123.647 319.318 122.786Z" fill="#CF6F64"/>
<path d="M303.883 119.493C304.278 120.188 304.809 120.793 305.445 121.27C306.08 121.748 306.806 122.086 307.576 122.266C309.662 122.734 310.705 120.782 310.131 118.822C309.619 117.055 307.907 114.68 305.786 115.086C305.332 115.181 304.907 115.386 304.546 115.682C304.185 115.978 303.9 116.358 303.714 116.79C303.527 117.221 303.445 117.692 303.475 118.162C303.504 118.632 303.644 119.089 303.883 119.493Z" fill="#CF6F64"/>
<path d="M307.333 103.924C304.083 105.434 302.935 118.557 307.02 120.499C311.105 122.442 313.486 101.054 307.333 103.924Z" fill="#263238"/>
<path d="M324.219 112.234C323.437 118.822 323.35 122.698 319.874 126.072C318.797 127.191 317.436 127.986 315.942 128.369C314.448 128.752 312.879 128.709 311.408 128.243C309.937 127.777 308.621 126.907 307.606 125.729C306.591 124.551 305.916 123.111 305.656 121.568C304.604 115.651 306.055 105.876 312.556 103.253C313.922 102.641 315.424 102.411 316.907 102.588C318.389 102.764 319.799 103.34 320.989 104.256C322.178 105.172 323.105 106.395 323.673 107.798C324.241 109.201 324.43 110.732 324.219 112.234Z" fill="#E58A7B"/>
<path d="M313.538 107.333C318.353 106.088 321.89 105.24 320.621 109.311C318.944 114.751 316.928 120.014 319.63 120.252C321.282 120.402 328.582 117.259 327.652 114.071C326.844 111.298 330.259 110.538 330.868 109.134C333.119 104.048 326.679 104.719 327.826 101.628C328.973 98.5375 322.611 93.5571 319.135 96.0385C313.477 100.048 303.77 99.9858 308.871 93.3893C312.53 88.6825 306.003 89.6451 306.003 89.6451C306.003 89.6451 309.949 92.0205 303.309 95.6941C296.287 99.6149 302.727 110.15 313.538 107.333Z" fill="#263238"/>
<path d="M326.774 119.493C325.824 120.89 324.396 121.879 322.768 122.266C320.621 122.734 319.796 120.782 320.604 118.822C321.325 117.055 323.307 114.68 325.358 115.086C327.409 115.492 327.878 117.762 326.774 119.493Z" fill="#E58A7B"/>
<path d="M294.966 195.887C294.966 195.887 289.091 249.312 288.63 269.587C288.161 290.675 308.541 356.472 308.541 356.472L318.97 352.057C318.97 352.057 306.803 291.938 308.541 271.23C310.383 248.65 317.997 195.922 317.997 195.922L294.966 195.887Z" fill="#4CAF4F"/>
<path opacity="0.2" d="M309.566 210.554C304.882 220.427 308.037 239.952 310.575 251.52C311.539 243.351 312.686 234.485 313.773 226.282C313.669 213.672 312.704 203.931 309.566 210.554Z" fill="black"/>
<path d="M318.509 348.56C318.561 348.56 319.743 351.933 319.743 351.933L307.715 357.073L305.821 353.487L318.509 348.56Z" fill="#4CAF4F"/>
<path d="M307.385 195.887C307.385 195.887 311.878 246.698 314.85 265.728C318.118 286.578 330.928 356.013 330.928 356.013H342.913C342.913 356.013 335.734 288.264 334.379 267.618C332.901 245.224 329.964 195.887 329.964 195.887H307.385Z" fill="#4CAF4F"/>
<path d="M343.096 352.843C343.148 352.843 343.495 356.243 343.495 356.243H330.32L329.382 352.339L343.096 352.843Z" fill="#4CAF4F"/>
<path opacity="0.2" d="M338.507 348.816C338.48 348.816 338.453 348.807 338.433 348.789C338.412 348.771 338.398 348.746 338.394 348.719C338.324 348.101 331.85 286.904 330.633 268.36C329.312 248.244 326.653 203.622 326.627 203.172C326.625 203.157 326.627 203.143 326.632 203.129C326.637 203.115 326.644 203.102 326.654 203.091C326.664 203.08 326.676 203.072 326.689 203.066C326.702 203.06 326.716 203.057 326.731 203.057C326.759 203.057 326.787 203.068 326.808 203.088C326.829 203.107 326.842 203.134 326.844 203.163C326.844 203.614 329.529 248.2 330.85 268.351C332.067 286.895 338.542 348.048 338.602 348.71C338.605 348.725 338.604 348.74 338.601 348.754C338.597 348.768 338.591 348.782 338.582 348.793C338.573 348.805 338.561 348.815 338.548 348.822C338.536 348.829 338.521 348.833 338.507 348.834V348.816Z" fill="black"/>
<path d="M314.277 114.071C314.277 114.609 313.947 115.042 313.599 115.042C313.251 115.042 312.999 114.609 313.034 114.071C313.069 113.532 313.364 113.099 313.712 113.099C314.06 113.099 314.312 113.541 314.277 114.071Z" fill="#263238"/>
<path d="M308.315 114.071C308.315 114.609 307.976 115.042 307.637 115.042C307.298 115.042 307.037 114.609 307.064 114.071C307.09 113.532 307.402 113.099 307.75 113.099C308.098 113.099 308.35 113.541 308.315 114.071Z" fill="#263238"/>
<path d="M310.192 114.344C309.467 115.989 308.532 117.53 307.411 118.928C308.28 119.811 309.905 119.404 309.905 119.404L310.192 114.344Z" fill="#DF5753"/>
<path d="M310.349 121.656C310.328 121.656 310.309 121.652 310.29 121.644C310.272 121.636 310.255 121.624 310.241 121.609C310.227 121.594 310.216 121.577 310.21 121.557C310.203 121.538 310.2 121.518 310.201 121.497C310.203 121.454 310.221 121.414 310.252 121.384C310.283 121.355 310.324 121.338 310.366 121.338C311.031 121.343 311.688 121.196 312.29 120.909C312.891 120.622 313.422 120.201 313.842 119.678C313.872 119.651 313.911 119.637 313.951 119.637C313.991 119.637 314.03 119.651 314.06 119.678C314.088 119.708 314.103 119.747 314.103 119.789C314.103 119.83 314.088 119.869 314.06 119.899C313.609 120.455 313.042 120.901 312.4 121.205C311.758 121.509 311.057 121.663 310.349 121.656Z" fill="#263238"/>
<path d="M315.337 112.446C315.296 112.467 315.249 112.479 315.202 112.479C315.156 112.479 315.109 112.467 315.068 112.446C314.743 112.232 314.373 112.099 313.988 112.058C313.603 112.017 313.214 112.068 312.852 112.207C312.816 112.225 312.778 112.236 312.739 112.238C312.699 112.241 312.66 112.236 312.622 112.222C312.585 112.209 312.551 112.189 312.522 112.162C312.492 112.135 312.469 112.102 312.452 112.066C312.42 111.987 312.419 111.899 312.45 111.82C312.48 111.741 312.541 111.677 312.617 111.642C313.071 111.454 313.564 111.379 314.052 111.425C314.541 111.472 315.012 111.637 315.424 111.907C315.457 111.93 315.486 111.96 315.508 111.994C315.53 112.028 315.545 112.067 315.552 112.107C315.56 112.147 315.559 112.188 315.55 112.228C315.542 112.268 315.525 112.306 315.502 112.34C315.458 112.39 315.401 112.427 315.337 112.446Z" fill="#263238"/>
<path d="M306.012 110.68C305.966 110.668 305.923 110.644 305.89 110.609C305.861 110.58 305.838 110.546 305.823 110.508C305.807 110.47 305.799 110.429 305.799 110.388C305.799 110.347 305.807 110.306 305.823 110.269C305.838 110.231 305.861 110.196 305.89 110.168C306.223 109.788 306.638 109.492 307.102 109.302C307.567 109.112 308.068 109.033 308.567 109.073C308.607 109.079 308.645 109.093 308.68 109.115C308.714 109.137 308.743 109.166 308.766 109.2C308.789 109.234 308.804 109.272 308.812 109.313C308.82 109.353 308.819 109.394 308.81 109.435C308.792 109.516 308.744 109.588 308.677 109.637C308.61 109.686 308.528 109.708 308.445 109.699C308.05 109.674 307.655 109.741 307.289 109.894C306.923 110.047 306.596 110.282 306.333 110.583C306.294 110.627 306.243 110.66 306.186 110.677C306.129 110.694 306.069 110.695 306.012 110.68Z" fill="#263238"/>
<path d="M338.707 146.771L329.668 144.325C329.668 144.325 320.804 166.498 317.666 167.938C313.408 169.916 302.622 176.768 298.034 180.009C297.782 181.113 297.982 184.036 298.555 184.84C306.377 183.391 321.351 177.537 324.48 174.561C331.615 167.77 338.707 146.771 338.707 146.771Z" fill="#E58A7B"/>
<path d="M332.397 365.4C331.956 365.435 331.517 365.314 331.154 365.056C331.043 364.953 330.959 364.822 330.912 364.677C330.864 364.531 330.855 364.376 330.885 364.225C330.891 364.132 330.921 364.041 330.973 363.963C331.025 363.886 331.097 363.824 331.181 363.784C331.911 363.404 333.953 364.72 334.188 364.87C334.213 364.886 334.233 364.911 334.244 364.939C334.255 364.968 334.257 364.999 334.248 365.029C334.241 365.06 334.226 365.088 334.205 365.111C334.183 365.135 334.156 365.152 334.127 365.162C333.56 365.303 332.98 365.383 332.397 365.4ZM331.528 364.022C331.462 364.008 331.394 364.008 331.328 364.022C331.295 364.04 331.267 364.066 331.249 364.099C331.23 364.132 331.222 364.17 331.224 364.208C331.201 364.311 331.205 364.418 331.235 364.518C331.266 364.619 331.322 364.71 331.398 364.782C331.737 365.091 332.588 365.126 333.71 364.905C333.042 364.459 332.29 364.158 331.502 364.022H331.528Z" fill="#4CAF4F"/>
<path d="M334.083 365.162C334.061 365.169 334.036 365.169 334.014 365.162C333.362 364.791 332.136 363.334 332.319 362.592C332.346 362.474 332.412 362.369 332.505 362.294C332.598 362.219 332.713 362.178 332.832 362.177C332.948 362.161 333.067 362.171 333.179 362.206C333.292 362.241 333.396 362.3 333.484 362.38C334.205 363.007 334.248 364.932 334.248 365.029C334.253 365.058 334.247 365.088 334.233 365.113C334.219 365.139 334.197 365.159 334.17 365.17C334.141 365.176 334.111 365.173 334.083 365.162ZM332.919 362.468H332.858C332.658 362.468 332.632 362.583 332.623 362.627C332.519 363.06 333.292 364.164 333.935 364.685C333.933 363.939 333.705 363.212 333.284 362.601C333.183 362.511 333.052 362.464 332.919 362.468Z" fill="#4CAF4F"/>
<path d="M309.323 364.296C308.791 364.485 308.212 364.485 307.681 364.296C307.56 364.23 307.457 364.133 307.383 364.016C307.309 363.899 307.264 363.764 307.255 363.625C307.244 363.538 307.255 363.449 307.287 363.367C307.319 363.285 307.37 363.213 307.437 363.157C308.133 362.521 310.974 363.157 311.296 363.281C311.327 363.289 311.354 363.307 311.372 363.333C311.391 363.358 311.401 363.39 311.4 363.422C311.402 363.455 311.393 363.488 311.376 363.516C311.359 363.544 311.334 363.567 311.305 363.581C310.665 363.874 310.002 364.114 309.323 364.296ZM307.907 363.245C307.807 363.266 307.714 363.311 307.637 363.378C307.609 363.399 307.588 363.427 307.576 363.46C307.564 363.493 307.561 363.529 307.568 363.563C307.573 363.656 307.602 363.746 307.65 363.824C307.699 363.903 307.766 363.968 307.846 364.014C308.306 364.261 309.375 364.067 310.757 363.475C309.826 363.236 308.863 363.159 307.907 363.245Z" fill="#4CAF4F"/>
<path d="M311.279 363.581H311.209C310.34 363.422 308.602 362.406 308.55 361.647C308.55 361.47 308.628 361.223 309.045 361.082C309.186 361.031 309.336 361.009 309.485 361.018C309.634 361.027 309.78 361.067 309.914 361.135C310.853 361.603 311.348 363.298 311.374 363.378C311.38 363.404 311.379 363.432 311.372 363.459C311.364 363.485 311.35 363.509 311.331 363.528C311.318 363.55 311.3 363.568 311.279 363.581ZM309.219 361.347H309.132C308.863 361.444 308.863 361.559 308.863 361.594C308.863 362.053 310.123 362.892 311 363.175C310.798 362.465 310.37 361.844 309.784 361.409C309.609 361.318 309.408 361.296 309.219 361.347Z" fill="#4CAF4F"/>
<path d="M298.773 179.488L289.708 183.727L288.656 186.376L292.002 188.663C292.002 188.663 298.26 187.974 300.041 183.886L298.773 179.488Z" fill="#E58A7B"/>
<path d="M299.155 184.99C298.952 183.22 298.377 181.515 297.469 179.992L298.903 178.897C299.982 180.652 300.67 182.626 300.919 184.681L299.155 184.99Z" fill="#263238"/>
<path d="M300.702 180.742C300.893 181.048 300.988 181.407 300.971 181.77C300.955 182.132 300.83 182.481 300.611 182.768C300.393 183.056 300.093 183.268 299.752 183.376C299.411 183.484 299.046 183.483 298.706 183.372C298.366 183.262 298.067 183.047 297.851 182.758C297.635 182.469 297.512 182.12 297.498 181.757C297.485 181.394 297.581 181.036 297.775 180.731C297.969 180.427 298.25 180.19 298.581 180.053C298.953 179.861 299.384 179.826 299.781 179.954C300.178 180.083 300.509 180.367 300.702 180.742Z" fill="#263238"/>
<path d="M283.581 187.153L284.789 188.389L292.924 184.857L289.708 183.727L283.581 187.153Z" fill="#E58A7B"/>
<path opacity="0.2" d="M318.509 348.56C318.561 348.56 319.743 351.933 319.743 351.933L307.715 357.073L305.821 353.487L318.509 348.56Z" fill="black"/>
<path opacity="0.2" d="M343.096 352.843C343.148 352.843 343.495 356.243 343.495 356.243H330.32L329.382 352.339L343.096 352.843Z" fill="black"/>
<path d="M341.062 144.227C343.452 152.06 334.109 162.772 334.109 162.772L321.203 157.42C322.733 152.893 324.497 148.451 326.487 144.113C330.45 135.432 338.646 136.324 341.062 144.227Z" fill="#4CAF4F"/>
<path opacity="0.2" d="M341.062 144.227C343.452 152.06 334.109 162.772 334.109 162.772L321.203 157.42C322.733 152.893 324.497 148.451 326.487 144.113C330.45 135.432 338.646 136.324 341.062 144.227Z" fill="black"/>
<path d="M212.82 65.7493H207.267V66.6589H212.82V65.7493Z" fill="#4CAF4F"/>
<path d="M284.709 101.749L284.037 116.905L284.931 116.945L285.603 101.79L284.709 101.749Z" fill="#4CAF4F"/>
<path d="M282.981 69.8291H180.43L170.887 286.816H273.439L282.981 69.8291Z" fill="#4CAF4F"/>
<path opacity="0.56" d="M279.922 72.8138H177.371L167.828 289.801H270.38L279.922 72.8138Z" fill="#FAFAFA"/>
<path opacity="0.07" d="M276.863 75.7898H174.311L164.76 292.777H267.312L276.863 75.7898Z" fill="#4CAF4F"/>
<path d="M265.191 170.428H177.657L176.927 187.03H264.461L265.191 170.428Z" fill="white"/>
<path d="M225.796 158.312H178.188L177.866 165.739H225.474L225.796 158.312Z" fill="#4CAF4F"/>
<path d="M263.218 215.235H175.685L174.955 231.836H262.488L263.218 215.235Z" fill="white"/>
<path opacity="0.47" d="M247.166 254.257H188.304L187.426 274.153H246.289L247.166 254.257Z" fill="#4CAF4F"/>
<path d="M243.23 277.244H184.367C184.341 277.25 184.314 277.25 184.289 277.244C184.28 277.218 184.28 277.19 184.289 277.164L185.158 257.26C185.158 257.246 185.16 257.233 185.166 257.22C185.171 257.208 185.179 257.197 185.189 257.188C185.198 257.179 185.21 257.172 185.223 257.167C185.235 257.163 185.249 257.161 185.262 257.163H244.125C244.135 257.157 244.147 257.154 244.159 257.154C244.172 257.154 244.183 257.157 244.194 257.163C244.2 257.173 244.204 257.186 244.204 257.198C244.204 257.21 244.2 257.223 244.194 257.233L243.343 277.182C243.332 277.202 243.316 277.219 243.295 277.231C243.275 277.242 243.252 277.246 243.23 277.244ZM184.471 277.032H243.125L243.994 257.339H185.34L184.471 277.032Z" fill="white"/>
<path d="M215.515 203.119H176.215L175.893 210.554H215.184L215.515 203.119Z" fill="#4CAF4F"/>
<path d="M246.045 116.799C245.821 121.631 244.13 126.273 241.205 130.089C239.039 132.972 236.253 135.312 233.059 136.93C229.865 138.548 226.349 139.401 222.78 139.423C219.896 139.446 217.038 138.868 214.383 137.726C211.727 136.583 209.329 134.9 207.338 132.781C205.346 130.661 203.803 128.15 202.803 125.401C201.803 122.653 201.367 119.725 201.522 116.799C201.828 110.727 204.405 105.003 208.726 100.798C213.048 96.5927 218.787 94.2235 224.77 94.1752C227.656 94.1478 230.517 94.7221 233.176 95.8626C235.835 97.003 238.236 98.6853 240.23 100.806C242.224 102.926 243.769 105.439 244.769 108.19C245.769 110.941 246.204 113.871 246.045 116.799Z" fill="white"/>
<path d="M248.14 98.9085C248.083 100.193 247.634 101.428 246.854 102.441C246.277 103.206 245.535 103.828 244.685 104.258C243.836 104.688 242.901 104.915 241.952 104.922C241.033 104.928 240.126 104.705 239.311 104.272C238.496 103.84 237.797 103.211 237.276 102.441C236.587 101.4 236.245 100.162 236.303 98.9085C236.387 97.2963 237.073 95.7775 238.221 94.6617C239.37 93.5459 240.893 92.9171 242.482 92.9036C243.249 92.8965 244.008 93.0489 244.715 93.3515C245.421 93.6541 246.059 94.1005 246.589 94.663C247.119 95.2256 247.53 95.8925 247.797 96.6227C248.063 97.3528 248.18 98.1307 248.14 98.9085Z" fill="#4CAF4F"/>
<path d="M187.087 178.729C187.045 179.44 186.74 180.109 186.231 180.601C185.723 181.093 185.051 181.37 184.349 181.378C184.011 181.382 183.675 181.316 183.362 181.182C183.05 181.049 182.768 180.853 182.533 180.604C182.298 180.356 182.116 180.061 181.998 179.739C181.88 179.416 181.829 179.072 181.846 178.729C181.884 178.016 182.189 177.344 182.697 176.852C183.206 176.359 183.881 176.083 184.584 176.08C184.922 176.077 185.258 176.144 185.57 176.278C185.881 176.411 186.163 176.608 186.397 176.856C186.632 177.104 186.814 177.398 186.932 177.72C187.051 178.042 187.104 178.385 187.087 178.729Z" fill="#263238"/>
<path d="M198.802 178.729C198.762 179.441 198.457 180.111 197.949 180.603C197.44 181.095 196.767 181.372 196.065 181.378C195.727 181.381 195.392 181.313 195.08 181.18C194.769 181.046 194.488 180.849 194.254 180.601C194.02 180.353 193.839 180.059 193.722 179.737C193.604 179.415 193.552 179.072 193.57 178.729C193.608 178.017 193.911 177.347 194.418 176.855C194.925 176.362 195.598 176.085 196.299 176.08C196.638 176.075 196.974 176.142 197.286 176.275C197.599 176.408 197.881 176.605 198.115 176.853C198.35 177.101 198.532 177.396 198.65 177.719C198.768 178.041 198.82 178.385 198.802 178.729Z" fill="#263238"/>
<path d="M210.526 178.729C210.486 179.441 210.181 180.111 209.673 180.603C209.164 181.095 208.491 181.372 207.788 181.378C207.45 181.381 207.115 181.313 206.803 181.18C206.491 181.046 206.209 180.85 205.975 180.601C205.741 180.353 205.559 180.059 205.44 179.737C205.321 179.415 205.269 179.072 205.285 178.729C205.325 178.016 205.63 177.346 206.139 176.854C206.647 176.362 207.321 176.085 208.023 176.08C208.362 176.075 208.698 176.142 209.01 176.275C209.323 176.408 209.605 176.605 209.839 176.853C210.074 177.101 210.256 177.396 210.374 177.719C210.492 178.041 210.544 178.385 210.526 178.729Z" fill="#263238"/>
<path d="M185.114 223.536C185.072 224.247 184.767 224.916 184.259 225.408C183.751 225.899 183.078 226.177 182.377 226.185C182.038 226.188 181.703 226.12 181.391 225.987C181.079 225.853 180.797 225.656 180.563 225.408C180.329 225.16 180.147 224.866 180.028 224.544C179.91 224.222 179.857 223.879 179.874 223.536C179.913 222.823 180.218 222.153 180.727 221.661C181.235 221.169 181.909 220.892 182.611 220.886C182.95 220.883 183.285 220.951 183.597 221.084C183.909 221.218 184.19 221.415 184.425 221.663C184.659 221.911 184.841 222.205 184.96 222.527C185.078 222.849 185.131 223.192 185.114 223.536Z" fill="#263238"/>
<path d="M196.829 223.536C196.79 224.246 196.486 224.915 195.979 225.407C195.473 225.899 194.801 226.177 194.1 226.185C193.762 226.189 193.426 226.122 193.113 225.989C192.801 225.856 192.519 225.659 192.284 225.411C192.049 225.163 191.868 224.868 191.749 224.546C191.631 224.223 191.58 223.879 191.597 223.536C191.637 222.823 191.942 222.153 192.451 221.661C192.959 221.169 193.633 220.892 194.335 220.886C194.673 220.883 195.008 220.951 195.319 221.084C195.631 221.218 195.912 221.415 196.146 221.663C196.379 221.911 196.56 222.206 196.678 222.528C196.796 222.85 196.847 223.193 196.829 223.536Z" fill="#263238"/>
<path d="M208.579 223.536C208.54 224.248 208.235 224.918 207.726 225.41C207.218 225.902 206.544 226.179 205.842 226.185C205.504 226.186 205.169 226.118 204.858 225.984C204.546 225.85 204.265 225.653 204.031 225.406C203.797 225.158 203.615 224.864 203.496 224.543C203.377 224.221 203.323 223.879 203.339 223.536C203.38 222.824 203.686 222.155 204.194 221.663C204.702 221.172 205.375 220.894 206.076 220.886C206.415 220.882 206.751 220.949 207.063 221.082C207.376 221.215 207.658 221.412 207.893 221.66C208.127 221.908 208.309 222.203 208.427 222.525C208.545 222.848 208.597 223.192 208.579 223.536Z" fill="#263238"/>
<path d="M220.277 223.536C220.235 224.247 219.93 224.916 219.422 225.408C218.914 225.899 218.241 226.177 217.54 226.185C217.202 226.186 216.867 226.118 216.555 225.984C216.244 225.85 215.963 225.653 215.729 225.405C215.495 225.158 215.313 224.864 215.194 224.543C215.075 224.221 215.021 223.879 215.037 223.536C215.078 222.824 215.384 222.155 215.892 221.663C216.4 221.172 217.073 220.894 217.774 220.886C218.113 220.883 218.448 220.951 218.76 221.084C219.072 221.218 219.353 221.415 219.588 221.663C219.822 221.911 220.004 222.205 220.123 222.527C220.241 222.849 220.294 223.192 220.277 223.536Z" fill="#263238"/>
<path d="M232.044 223.536C232.003 224.247 231.697 224.916 231.189 225.408C230.681 225.899 230.008 226.177 229.307 226.185C228.968 226.189 228.632 226.122 228.32 225.989C228.007 225.856 227.725 225.659 227.491 225.411C227.256 225.163 227.074 224.868 226.956 224.546C226.838 224.223 226.786 223.879 226.804 223.536C226.844 222.823 227.149 222.153 227.657 221.661C228.166 221.169 228.839 220.892 229.542 220.886C229.88 220.883 230.215 220.951 230.527 221.084C230.839 221.218 231.121 221.415 231.355 221.663C231.589 221.911 231.771 222.205 231.89 222.527C232.008 222.849 232.061 223.192 232.044 223.536Z" fill="#263238"/>
<path d="M230.266 115.621C233.903 112.007 234.096 106.213 230.697 102.681C227.297 99.1486 221.593 99.2153 217.955 102.83C214.318 106.444 214.125 112.238 217.524 115.77C220.924 119.302 226.628 119.235 230.266 115.621Z" fill="#4CAF4F"/>
<path d="M241.205 130.089C239.039 132.972 236.253 135.312 233.059 136.93C229.865 138.548 226.349 139.401 222.78 139.424C219.319 139.453 215.905 138.617 212.837 136.99C209.77 135.362 207.143 132.992 205.19 130.089C209.414 125.815 216.097 123.025 223.501 123.025C230.906 123.025 237.355 125.815 241.205 130.089Z" fill="#4CAF4F"/>
<path opacity="0.1" d="M230.266 115.621C233.903 112.007 234.096 106.213 230.697 102.681C227.297 99.1486 221.593 99.2153 217.955 102.83C214.318 106.444 214.125 112.238 217.524 115.77C220.924 119.302 226.628 119.235 230.266 115.621Z" fill="white"/>
<path opacity="0.1" d="M241.205 130.089C239.039 132.972 236.253 135.312 233.059 136.93C229.865 138.548 226.349 139.401 222.78 139.424C219.319 139.453 215.905 138.617 212.837 136.99C209.77 135.362 207.143 132.992 205.19 130.089C209.414 125.815 216.097 123.025 223.501 123.025C230.906 123.025 237.355 125.815 241.205 130.089Z" fill="white"/>
<path d="M113.337 191.03C112.511 192.867 111.642 194.889 110.886 196.849C110.13 198.81 109.356 200.832 108.687 202.845C107.321 206.813 106.28 210.889 105.576 215.032L105.385 216.33C105.366 216.552 105.387 216.777 105.446 216.992C105.651 217.724 105.974 218.416 106.402 219.041C107.518 220.657 108.812 222.139 110.26 223.456C111.787 224.899 113.388 226.258 115.058 227.527C116.726 228.834 118.482 230.106 120.211 231.306L118.586 234.406C114.456 232.578 110.537 230.295 106.897 227.598C104.955 226.159 103.203 224.473 101.682 222.582C100.781 221.456 100.079 220.18 99.6053 218.811C99.3302 217.956 99.1894 217.062 99.1882 216.162C99.1882 215.95 99.1882 215.641 99.1882 215.491V215.058L99.2751 214.175C99.7733 209.574 100.725 205.036 102.117 200.629C102.795 198.456 103.516 196.293 104.342 194.182C105.167 192.072 106.019 190.006 107.071 187.86L113.337 191.03Z" fill="#E58A7B"/>
<path d="M118.986 230.759L125.13 227.598L123.54 234.45C123.54 234.45 119.325 235.651 117.369 233.567L118.986 230.759Z" fill="#E58A7B"/>
<path d="M130.753 228.719L129.119 234.388L123.54 234.45L125.13 227.598L130.753 228.719Z" fill="#E58A7B"/>
<path d="M139.427 157.968C139.755 159.192 140.213 160.376 140.791 161.5C140.622 161.695 140.404 161.84 140.161 161.919C139.918 161.998 139.658 162.009 139.409 161.951L139.427 157.968Z" fill="#DF5753"/>
<path d="M139.244 158.021C139.604 158.021 139.896 157.566 139.896 157.005C139.896 156.444 139.604 155.99 139.244 155.99C138.884 155.99 138.592 156.444 138.592 157.005C138.592 157.566 138.884 158.021 139.244 158.021Z" fill="#263238"/>
<path d="M139.053 156.025L140.374 155.645C140.374 155.645 139.731 156.687 139.053 156.025Z" fill="#263238"/>
<path d="M122.453 164.45C123.244 168.556 124.035 176.088 121.202 178.835C121.202 178.835 122.314 183.003 129.832 183.003C138.097 183.003 133.778 178.835 133.778 178.835C129.267 177.74 129.38 174.34 130.171 171.143L122.453 164.45Z" fill="#E58A7B"/>
<path d="M120.255 155.089C120.672 161.951 120.707 164.865 124.113 168.388C129.25 173.686 137.454 171.673 139.062 164.856C140.513 158.674 139.592 148.501 132.978 145.773C131.526 145.165 129.946 144.944 128.387 145.13C126.827 145.316 125.34 145.903 124.066 146.836C122.793 147.768 121.774 149.016 121.107 150.46C120.44 151.904 120.147 153.498 120.255 155.089Z" fill="#E58A7B"/>
<path d="M120.924 147.371C117.534 148.625 113.015 147.689 114.788 158.312C116.665 169.563 113.78 173.263 113.78 173.263C113.78 173.263 126.634 176.044 139.757 173.095C139.757 173.095 135.75 165.977 136.872 160.732C138.305 154.109 137.176 151.663 137.176 151.663C137.176 151.663 125.686 145.605 120.924 147.371Z" fill="#263238"/>
<path d="M135.264 158.666C135.267 159.97 135.635 161.247 136.324 162.348C137.245 163.778 138.332 163.231 138.601 161.712C138.844 160.379 138.662 158.021 137.489 157.102C136.315 156.184 135.281 157.085 135.264 158.666Z" fill="#E58A7B"/>
<path d="M117.978 148.528C117.004 145.746 121.645 141.463 131.466 143.23C141.286 144.996 141.712 153.305 141.712 153.305L139.731 150.903L139.818 153.429L129.728 155.398L117.978 148.528Z" fill="#263238"/>
<path d="M118.812 179.303C118.754 178.9 118.853 178.489 119.089 178.159C119.324 177.829 119.677 177.606 120.072 177.537C123.131 177.024 130.084 175.982 133.578 176.477C136.185 176.848 136.863 178.384 136.976 179.647C136.993 179.868 136.964 180.091 136.89 180.299C136.816 180.508 136.699 180.698 136.547 180.857C136.395 181.016 136.211 181.14 136.007 181.221C135.804 181.302 135.586 181.337 135.368 181.325L120.263 180.636C119.907 180.618 119.568 180.475 119.304 180.232C119.039 179.989 118.866 179.661 118.812 179.303Z" fill="#4CAF4F"/>
<path opacity="0.6" d="M118.812 179.303C118.754 178.9 118.853 178.489 119.089 178.159C119.324 177.829 119.677 177.606 120.072 177.537C123.131 177.024 130.084 175.982 133.578 176.477C136.185 176.848 136.863 178.384 136.976 179.647C136.993 179.868 136.964 180.091 136.89 180.299C136.816 180.508 136.699 180.698 136.547 180.857C136.395 181.016 136.211 181.14 136.007 181.221C135.804 181.302 135.586 181.337 135.368 181.325L120.263 180.636C119.907 180.618 119.568 180.475 119.304 180.232C119.039 179.989 118.866 179.661 118.812 179.303Z" fill="black"/>
<path d="M127.546 333.574L133.152 337.53L142.529 324.611L136.924 320.664L127.546 333.574Z" fill="#E58A7B"/>
<path d="M114.475 333.318L120.394 336.745L128.693 323.084L122.775 319.657L114.475 333.318Z" fill="#E58A7B"/>
<path d="M142.52 324.611L137.688 331.27L132.083 327.322L136.915 320.664L142.52 324.611Z" fill="#CF6F64"/>
<path d="M122.766 319.657L128.693 323.092L124.418 330.13L118.49 326.695L122.766 319.657Z" fill="#CF6F64"/>
<path d="M132.274 222.432C132.274 222.432 154.157 250.451 150.047 277.252C146.736 298.896 127.529 328.205 127.529 328.205L118.499 323.649C124.864 310.69 130.295 297.279 134.751 283.522C136.125 279.251 136.526 274.719 135.924 270.267C135.321 265.815 133.732 261.561 131.275 257.825C120.185 241.373 102.421 251.167 114.371 222.432H132.274Z" fill="#4CAF4F"/>
<path opacity="0.6" d="M132.274 222.432C132.274 222.432 154.157 250.451 150.047 277.252C146.736 298.896 127.529 328.205 127.529 328.205L118.499 323.649C124.864 310.69 130.295 297.279 134.751 283.522C136.125 279.251 136.526 274.719 135.924 270.267C135.321 265.815 133.732 261.561 131.275 257.825C120.185 241.373 102.421 251.167 114.371 222.432H132.274Z" fill="black"/>
<path opacity="0.4" d="M143.007 240.429L139.826 237.214C139.826 237.47 145.988 276.122 147.718 286.984C148.738 283.811 149.52 280.564 150.055 277.27C152.089 264.121 147.839 250.69 143.007 240.429Z" fill="black"/>
<path d="M142.043 222.432C142.043 222.432 168.393 257.648 169.14 278.762C169.757 296.424 140.461 330.643 140.461 330.643L131.944 325.044C131.944 325.044 149.091 300.742 153.41 280.891C151.741 261.216 116.457 222.432 116.457 222.432H142.043Z" fill="#4CAF4F"/>
<path opacity="0.6" d="M142.043 222.432C142.043 222.432 168.393 257.648 169.14 278.762C169.757 296.424 140.461 330.643 140.461 330.643L131.944 325.044C131.944 325.044 149.091 300.742 153.41 280.891C151.741 261.216 116.457 222.432 116.457 222.432H142.043Z" fill="black"/>
<path d="M109.443 180.407C106.627 181.087 103.925 191.489 103.925 191.489L114.936 198.96C114.936 198.96 118.603 190.73 117.317 187.127C115.987 183.374 112.98 179.55 109.443 180.407Z" fill="#4CAF4F"/>
<path opacity="0.2" d="M111.599 187.109L110.834 196.178L114.927 198.969C116.057 196.383 116.894 193.675 117.421 190.897L111.599 187.109Z" fill="black"/>
<path d="M145.302 180.61C145.302 180.61 148.552 181.766 142.043 222.423H114.354C114.823 210.943 114.832 203.878 109.443 180.407C113.32 179.595 117.25 179.069 121.202 178.835C125.388 178.53 129.591 178.53 133.778 178.835C139.183 179.338 145.302 180.61 145.302 180.61Z" fill="#4CAF4F"/>
<path d="M148.117 187.109C148.743 188.875 149.404 190.774 150.099 192.602C150.794 194.43 151.455 196.311 152.159 198.165L154.288 203.711L154.827 205.097L155.105 205.786L155.235 206.13C155.235 206.192 155.235 206.192 155.235 206.183C155.076 205.956 154.868 205.768 154.627 205.636C154.283 205.43 153.895 205.312 153.497 205.291C153.166 205.281 152.837 205.344 152.532 205.477C152.133 205.662 152.133 205.742 152.141 205.733C152.214 205.674 152.278 205.606 152.332 205.53C152.814 204.888 153.23 204.199 153.575 203.472C153.984 202.66 154.375 201.794 154.766 200.92C155.531 199.154 156.235 197.326 156.939 195.48C157.643 193.635 158.312 191.772 158.964 189.891L160.945 184.257L164.291 185.14C163.63 189.167 162.779 193.087 161.753 197.079C161.258 199.066 160.676 201.035 160.015 203.022C159.685 204.02 159.32 205.009 158.903 206.024C158.468 207.126 157.933 208.185 157.304 209.186C157.072 209.523 156.817 209.841 156.539 210.139C156.095 210.626 155.556 211.014 154.957 211.279C154.425 211.51 153.849 211.619 153.271 211.596C152.623 211.572 151.992 211.38 151.437 211.04C150.783 210.625 150.239 210.052 149.856 209.371C149.725 209.142 149.612 208.912 149.534 208.744L149.369 208.409L149.039 207.72L148.378 206.351C147.509 204.514 146.64 202.66 145.884 200.797C145.128 198.933 144.328 197.044 143.581 195.145C142.833 193.246 142.164 191.348 141.53 189.299L148.117 187.109Z" fill="#E58A7B"/>
<path d="M145.302 180.61C148.63 181.413 152.376 191.41 152.376 191.41L142.477 199.966C142.477 199.966 136.072 189.069 137.367 185.475C138.714 181.731 140.956 179.559 145.302 180.61Z" fill="#4CAF4F"/>
<path d="M162.518 181.095L165.994 178.146L168.41 181.97L166.629 185.157C166.629 185.157 163.796 187.807 161.293 186.456C160.895 185.548 160.8 184.534 161.021 183.567C161.242 182.6 161.768 181.732 162.518 181.095Z" fill="#E58A7B"/>
<path d="M172.269 178.155L172.008 179.117L166.507 180.053L165.968 178.146L172.269 178.155Z" fill="#E58A7B"/>
<path d="M141.139 331.093L131.214 324.576L132.995 321.432L144.146 328.4L141.139 331.093Z" fill="#4CAF4F"/>
<path d="M124.278 336.285C123.408 336.177 122.571 335.876 121.828 335.402C121.797 335.391 121.77 335.371 121.752 335.344C121.733 335.317 121.723 335.285 121.723 335.252C121.723 335.219 121.733 335.187 121.752 335.16C121.77 335.133 121.797 335.113 121.828 335.102C122.097 335.014 124.435 334.281 125.113 334.846C125.189 334.91 125.247 334.994 125.281 335.089C125.314 335.184 125.322 335.286 125.304 335.385C125.292 335.544 125.24 335.697 125.153 335.83C125.067 335.963 124.948 336.071 124.809 336.144C124.646 336.234 124.464 336.283 124.278 336.285ZM122.323 335.314C123.409 335.879 124.278 336.082 124.696 335.87C124.786 335.819 124.863 335.745 124.918 335.656C124.972 335.566 125.004 335.464 125.009 335.358C125.009 335.217 125.009 335.155 124.93 335.12C124.565 334.819 123.262 335.049 122.306 335.314H122.323Z" fill="#263238"/>
<path d="M121.889 335.464C121.843 335.463 121.799 335.444 121.767 335.411C121.754 335.387 121.747 335.359 121.747 335.332C121.747 335.304 121.754 335.277 121.767 335.252C121.767 335.173 122.332 333.256 123.218 332.824C123.331 332.771 123.454 332.744 123.579 332.744C123.703 332.744 123.826 332.771 123.94 332.824C124.062 332.863 124.167 332.942 124.24 333.05C124.312 333.157 124.347 333.286 124.339 333.415C124.278 334.21 122.688 335.305 121.958 335.491L121.889 335.464ZM123.575 333.053C123.49 333.056 123.407 333.077 123.331 333.115C122.792 333.38 122.349 334.413 122.132 335.04C122.897 334.713 123.948 333.848 123.983 333.362C123.983 333.283 123.983 333.186 123.783 333.097C123.718 333.062 123.648 333.038 123.575 333.027V333.053Z" fill="#263238"/>
<path d="M136.68 340.1C135.698 340.1 134.334 338.82 133.586 338.034C133.567 338.007 133.557 337.974 133.557 337.941C133.557 337.908 133.567 337.875 133.586 337.848C133.604 337.82 133.628 337.797 133.657 337.781C133.686 337.766 133.719 337.758 133.751 337.76C134.099 337.76 137.115 338.219 137.541 339.085C137.586 339.162 137.61 339.251 137.61 339.341C137.61 339.431 137.586 339.519 137.541 339.597C137.477 339.732 137.38 339.848 137.26 339.934C137.14 340.021 137 340.075 136.854 340.091L136.68 340.1ZM134.16 338.157C135.255 339.235 136.22 339.835 136.767 339.765C136.863 339.752 136.954 339.715 137.033 339.658C137.112 339.602 137.176 339.526 137.219 339.438C137.239 339.408 137.249 339.372 137.249 339.336C137.249 339.3 137.239 339.265 137.219 339.235C136.993 338.758 135.385 338.352 134.16 338.157Z" fill="#263238"/>
<path d="M134.256 338.113C134.06 338.119 133.865 338.104 133.673 338.069C133.646 338.065 133.621 338.054 133.6 338.037C133.578 338.02 133.562 337.997 133.552 337.972C133.539 337.946 133.532 337.917 133.532 337.888C133.532 337.859 133.539 337.83 133.552 337.804C133.604 337.742 134.777 336.303 135.889 336.206C136.204 336.181 136.516 336.282 136.759 336.488C137.097 336.789 137.08 337.054 136.993 337.221C136.776 337.822 135.272 338.113 134.256 338.113ZM134.03 337.787C135.003 337.84 136.559 337.513 136.759 337.08C136.759 337.08 136.828 336.939 136.602 336.745C136.512 336.665 136.407 336.605 136.294 336.569C136.18 336.532 136.06 336.52 135.942 336.533C135.192 336.745 134.525 337.186 134.03 337.795V337.787Z" fill="#263238"/>
<path d="M122.123 334.51L114.753 332.391C114.626 332.352 114.49 332.362 114.369 332.419C114.249 332.476 114.154 332.576 114.102 332.7L111.616 338.378C111.558 338.524 111.53 338.68 111.536 338.837C111.541 338.994 111.579 339.148 111.647 339.289C111.715 339.43 111.812 339.555 111.931 339.655C112.05 339.755 112.188 339.829 112.337 339.871C114.945 340.559 116.196 340.754 119.438 341.699C121.437 342.264 124.287 343.315 127.042 344.109C129.797 344.904 130.718 342.175 129.649 341.593C124.817 338.996 124.435 337.177 123.114 335.234C122.877 334.883 122.527 334.626 122.123 334.51Z" fill="#4CAF4F"/>
<path d="M133.786 337.001L127.494 332.585C127.387 332.506 127.256 332.47 127.125 332.483C126.993 332.496 126.871 332.558 126.781 332.656L122.61 337.213C122.508 337.33 122.432 337.469 122.387 337.619C122.343 337.768 122.329 337.926 122.349 338.082C122.369 338.237 122.421 338.386 122.502 338.52C122.583 338.653 122.691 338.767 122.818 338.855C125.035 340.365 126.182 340.974 128.954 342.926C130.692 344.127 134.056 346.794 136.402 348.454C138.749 350.114 140.496 347.836 139.661 346.935C135.924 342.882 135.107 340.339 134.49 338.034C134.383 337.616 134.134 337.25 133.786 337.001Z" fill="#4CAF4F"/>
<path d="M128.685 328.788L117.343 323.057L118.517 319.931L130.631 325.971L128.685 328.788Z" fill="#4CAF4F"/>
<path d="M113.936 220.771L112.98 223.315C112.885 223.509 113.111 223.712 113.432 223.712H142.182C142.434 223.712 142.642 223.588 142.66 223.43L142.903 220.904C142.903 220.736 142.703 220.586 142.434 220.586H114.388C114.304 220.578 114.219 220.591 114.14 220.623C114.062 220.655 113.992 220.706 113.936 220.771Z" fill="#4CAF4F"/>
<path opacity="0.4" d="M113.936 220.771L112.98 223.315C112.885 223.509 113.111 223.712 113.432 223.712H142.182C142.434 223.712 142.642 223.588 142.66 223.43L142.903 220.904C142.903 220.736 142.703 220.586 142.434 220.586H114.388C114.304 220.578 114.219 220.591 114.14 220.623C114.062 220.655 113.992 220.706 113.936 220.771Z" fill="white"/>
<path d="M118.464 223.959H117.708C117.561 223.959 117.448 223.88 117.456 223.783L117.813 220.507C117.813 220.418 117.952 220.339 118.099 220.339H118.855C119.003 220.339 119.116 220.418 119.107 220.507L118.751 223.783C118.742 223.88 118.612 223.959 118.464 223.959Z" fill="#4CAF4F"/>
<path d="M136.194 223.959H135.446C135.298 223.959 135.185 223.88 135.194 223.783L135.542 220.507C135.542 220.418 135.69 220.339 135.837 220.339H136.585C136.732 220.339 136.854 220.418 136.837 220.507L136.489 223.783C136.446 223.88 136.35 223.959 136.194 223.959Z" fill="#4CAF4F"/>
<g style="mix-blend-mode:multiply">
<path d="M117.804 373.507C130.663 373.507 141.087 372.74 141.087 371.793C141.087 370.847 130.663 370.08 117.804 370.08C104.945 370.08 94.5212 370.847 94.5212 371.793C94.5212 372.74 104.945 373.507 117.804 373.507Z" fill="#F5F5F5"/>
</g>
<path d="M131.987 369.374C127.868 368.155 123.296 366.592 120.533 364.958C120.455 364.905 120.368 364.879 120.289 364.835V345.884H128.624C129.257 345.846 129.851 345.564 130.286 345.095C130.72 344.627 130.963 344.007 130.963 343.363C130.963 342.719 130.72 342.099 130.286 341.631C129.851 341.162 129.257 340.88 128.624 340.842H120.333V254.46H115.327V340.842H107.045C106.706 340.822 106.368 340.872 106.049 340.989C105.731 341.107 105.439 341.289 105.193 341.525C104.946 341.761 104.75 342.046 104.616 342.362C104.481 342.678 104.412 343.019 104.412 343.363C104.412 343.707 104.481 344.048 104.616 344.364C104.75 344.68 104.946 344.965 105.193 345.201C105.439 345.437 105.731 345.619 106.049 345.737C106.368 345.854 106.706 345.905 107.045 345.884H115.327V364.808C115.249 364.808 115.171 364.879 115.092 364.932C112.285 366.592 107.749 368.155 103.629 369.347C103.351 369.433 103.112 369.617 102.956 369.866C102.799 370.115 102.736 370.412 102.777 370.705C102.818 370.997 102.96 371.265 103.179 371.46C103.397 371.655 103.677 371.764 103.968 371.767H131.648C131.926 371.748 132.189 371.632 132.393 371.44C132.597 371.247 132.73 370.99 132.77 370.71C132.81 370.43 132.753 370.144 132.611 369.901C132.469 369.658 132.248 369.472 131.987 369.374Z" fill="#E0E0E0"/>
<path d="M133.265 245.665H102.36C99.874 245.665 97.8585 247.713 97.8585 250.239V259.573C97.8585 262.1 99.874 264.148 102.36 264.148H133.265C135.751 264.148 137.767 262.1 137.767 259.573V250.239C137.767 247.713 135.751 245.665 133.265 245.665Z" fill="#4CAF4F"/>
<path d="M102.073 264.156V265.764C102.073 267.088 103.49 268.166 105.228 268.166H130.432C132.17 268.166 133.586 267.088 133.586 265.764V264.156H102.073Z" fill="#4CAF4F"/>
<path opacity="0.3" d="M102.073 264.156V265.764C102.073 267.088 103.49 268.166 105.228 268.166H130.432C132.17 268.166 133.586 267.088 133.586 265.764V264.156H102.073Z" fill="white"/>
</svg>
